General


Format                         : MPEG-4
Format profile                 : Base Media
Codec ID                       : isom
File size                      : 100 MiB
Duration                       : 3mn 44s
Overall bit rate mode          : Variable
Overall bit rate               : 3 741 Kbps
Encoded date                   : UTC 2012-07-30 03:53:14
Tagged date                    : UTC 2012-07-30 03:53:14

Video
ID                             : 1
Format                         : AVC
Format/Info                    : Advanced Video Codec
Format profile                 : High@L3.0
Format settings, CABAC         : Yes
Format settings, ReFrames      : 2 frames
Codec ID                       : avc1
Codec ID/Info                  : Advanced Video Coding
Duration                       : 3mn 44s
Bit rate                       : 3 561 Kbps
Maximum bit rate               : 5 633 Kbps
Width                          : 640 pixels
Height                         : 480 pixels
Display aspect ratio           : 4:3
Frame rate mode                : Constant
Frame rate                     : 29.970 fps
Color space                    : YUV
Chroma subsampling             : 4:2:0
Bit depth                      : 8 bits
Scan type                      : Progressive
Bits/(Pixel*Frame)             : 0.387
Stream size                    : 94.7 MiB (95%)


Audio
ID                             : 2
Format                         : AAC
Format/Info                    : Advanced Audio Codec
Format profile                 : LC
Codec ID                       : 40
Duration                       : 3mn 44s
Bit rate mode                  : Variable
Bit rate                       : 192 Kbps
Maximum bit rate               : 212 Kbps
Channel(s)                     : 2 channels
Channel positions              : Front: L R
Sampling rate                  : 44.1 KHz
Compression mode               : Lossy
Delay relative to video        : -667ms
Stream size                    : 5.14 MiB (5%)
